<?xml version="1.0" encoding="UTF-8"?>
<svg version="1.1" xmlns="http://www.w3.org/2000/svg" width="128" height="96">
<path d="M0 0 C1.12365967 0.13317627 2.24731934 0.26635254 3.4050293 0.40356445 C9.09164972 1.08271236 14.77211357 1.80024923 20.44921875 2.5546875 C39.01245346 5.01122749 55.57895925 6.00023532 73.51171875 -0.5078125 C75.875 -1.3125 75.875 -1.3125 77.875 -1.3125 C77.875 28.0575 77.875 57.4275 77.875 87.6875 C60.67570618 94.56721753 45.96022953 95.62452331 27.75 93.375 C26.62634033 93.24182373 25.50268066 93.10864746 24.3449707 92.97143555 C18.65835028 92.29228764 12.97788643 91.57475077 7.30078125 90.8203125 C-11.26245346 88.36377251 -27.82895925 87.37476468 -45.76171875 93.8828125 C-48.125 94.6875 -48.125 94.6875 -50.125 94.6875 C-50.125 65.3175 -50.125 35.9475 -50.125 5.6875 C-32.15125664 -0.73169406 -18.43433152 -2.2772068 0 0 Z " fill="#00684D" transform="translate(50.125,1.3125)"/>
<path d="M0 0 C7.9503798 4.53568305 12.57673458 11.47861299 15.9453125 19.8828125 C18.19730121 28.16067054 18.05749755 37.61583857 13.91796875 45.23828125 C13.54929688 45.82867187 13.180625 46.4190625 12.80078125 47.02734375 C12.26453125 47.93484375 11.72828125 48.84234375 11.17578125 49.77734375 C6.75675042 53.96379401 0.98808483 57.23772078 -5.19921875 57.58984375 C-14.48670036 56.86104741 -22.21215934 51.95910682 -28.19921875 45.02734375 C-33.70929651 36.15072684 -34.99937275 28.41823249 -34.19921875 18.02734375 C-32.26342008 10.12633938 -28.5406548 4.6186615 -22.13671875 -0.34765625 C-15.55840403 -3.78044494 -6.63359176 -2.98030934 0 0 Z " fill="#F12C42" transform="translate(66.19921875,19.97265625)"/>
<path d="M0 0 C1.12365967 0.13317627 2.24731934 0.26635254 3.4050293 0.40356445 C9.09164972 1.08271236 14.77211357 1.80024923 20.44921875 2.5546875 C39.01245346 5.01122749 55.57895925 6.00023532 73.51171875 -0.5078125 C75.875 -1.3125 75.875 -1.3125 77.875 -1.3125 C77.875 28.0575 77.875 57.4275 77.875 87.6875 C60.67570618 94.56721753 45.96022953 95.62452331 27.75 93.375 C26.62634033 93.24182373 25.50268066 93.10864746 24.3449707 92.97143555 C18.65835028 92.29228764 12.97788643 91.57475077 7.30078125 90.8203125 C-11.26245346 88.36377251 -27.82895925 87.37476468 -45.76171875 93.8828125 C-48.125 94.6875 -48.125 94.6875 -50.125 94.6875 C-50.125 65.3175 -50.125 35.9475 -50.125 5.6875 C-32.15125664 -0.73169406 -18.43433152 -2.2772068 0 0 Z M-47.125 8.6875 C-47.125 34.7575 -47.125 60.8275 -47.125 87.6875 C-43.49634415 88.89705195 -42.0775703 88.32855035 -38.4375 87.3125 C-20.80374802 82.69865092 -3.90455352 85.26928597 13.875 87.6875 C44.38585558 92.06297121 44.38585558 92.06297121 73.875 84.6875 C75.08962233 73.39206565 75.02756391 62.10700001 75.00537109 50.76049805 C75.00004041 47.52452852 75.00532696 44.28869953 75.01171875 41.05273438 C75.01520614 28.89604261 74.72313151 16.81539427 73.875 4.6875 C73.07924561 4.83131104 72.28349121 4.97512207 71.46362305 5.12329102 C70.54750244 5.28885498 69.63138184 5.45441895 68.6875 5.625 C64.60524426 6.36080686 64.60524426 6.36080686 60.54541016 7.20825195 C43.79798172 10.21384731 25.49043203 7.44290976 8.875 4.6875 C-10.478624 1.5287479 -28.82898375 0.84635018 -47.125 8.6875 Z " fill="#005E45" transform="translate(50.125,1.3125)"/>
<path d="M0 0 C0.99 0.33 1.98 0.66 3 1 C3 18.16 3 35.32 3 53 C-14.44910547 59.97964219 -29.28068206 60.89596191 -47.75 58.625 C-48.89073975 58.48779541 -50.03147949 58.35059082 -51.20678711 58.20922852 C-54.47207107 57.81295055 -57.7360564 57.40714365 -61 57 C-62.25997803 56.84845459 -62.25997803 56.84845459 -63.54541016 56.69384766 C-65.55236545 56.45195557 -67.5575649 56.19560184 -69.5625 55.9375 C-70.61566406 55.80214844 -71.66882813 55.66679688 -72.75390625 55.52734375 C-73.49511719 55.35332031 -74.23632812 55.17929688 -75 55 C-75.33 54.34 -75.66 53.68 -76 53 C-75.67 52.34 -75.34 51.68 -75 51 C-66.02382302 50.63594719 -57.27173145 52.26419423 -48.41601562 53.578125 C-37.30853221 55.14967394 -26.6677396 55.88730568 -15.625 53.625 C-14.33851562 53.36976562 -13.05203125 53.11453125 -11.7265625 52.8515625 C-8.09823435 52.02244768 -4.56601107 51.05966737 -1 50 C-1.00523682 49.16041748 -1.01047363 48.32083496 -1.01586914 47.45581055 C-1.10151216 31.60751516 -1.12845443 15.81851303 0 0 Z " fill="#004531" transform="translate(125,36)"/>
</svg>
