<?xml version="1.0" encoding="UTF-8"?>
<svg version="1.1" xmlns="http://www.w3.org/2000/svg" width="128" height="96">
<path d="M0 0 C1.12365967 0.13317627 2.24731934 0.26635254 3.4050293 0.40356445 C9.09164972 1.08271236 14.77211357 1.80024923 20.44921875 2.5546875 C39.01245346 5.01122749 55.57895925 6.00023532 73.51171875 -0.5078125 C75.875 -1.3125 75.875 -1.3125 77.875 -1.3125 C77.875 28.0575 77.875 57.4275 77.875 87.6875 C60.67570618 94.56721753 45.96022953 95.62452331 27.75 93.375 C26.62634033 93.24182373 25.50268066 93.10864746 24.3449707 92.97143555 C18.65835028 92.29228764 12.97788643 91.57475077 7.30078125 90.8203125 C-11.26245346 88.36377251 -27.82895925 87.37476468 -45.76171875 93.8828125 C-48.125 94.6875 -48.125 94.6875 -50.125 94.6875 C-50.125 65.3175 -50.125 35.9475 -50.125 5.6875 C-32.15125664 -0.73169406 -18.43433152 -2.2772068 0 0 Z " fill="#ED1D25" transform="translate(50.125,1.3125)"/>
<path d="M0 0 C1.12365967 0.13317627 2.24731934 0.26635254 3.4050293 0.40356445 C9.09164972 1.08271236 14.77211357 1.80024923 20.44921875 2.5546875 C39.01245346 5.01122749 55.57895925 6.00023532 73.51171875 -0.5078125 C75.875 -1.3125 75.875 -1.3125 77.875 -1.3125 C77.875 28.0575 77.875 57.4275 77.875 87.6875 C60.67570618 94.56721753 45.96022953 95.62452331 27.75 93.375 C26.62634033 93.24182373 25.50268066 93.10864746 24.3449707 92.97143555 C18.65835028 92.29228764 12.97788643 91.57475077 7.30078125 90.8203125 C-11.26245346 88.36377251 -27.82895925 87.37476468 -45.76171875 93.8828125 C-48.125 94.6875 -48.125 94.6875 -50.125 94.6875 C-50.125 65.3175 -50.125 35.9475 -50.125 5.6875 C-32.15125664 -0.73169406 -18.43433152 -2.2772068 0 0 Z M-47.125 8.6875 C-47.125 35.0875 -47.125 61.4875 -47.125 88.6875 C-42.175 87.6975 -42.175 87.6975 -37.125 86.6875 C-21.66304847 83.65133497 -7.06352829 84.38068933 8.37255859 86.82592773 C20.70958136 88.75285567 32.87033014 90.18063166 45.375 90.1875 C46.4575708 90.19330078 47.5401416 90.19910156 48.65551758 90.20507812 C57.64846934 90.06459618 66.81668569 88.87213256 74.875 84.6875 C74.89815123 74.69976384 74.91592932 64.71203405 74.92681217 54.72427654 C74.93203489 50.08676393 74.93912151 45.44926964 74.95043945 40.81176758 C74.96128996 36.33789197 74.96728145 31.86403401 74.96987724 27.39014626 C74.97172758 25.68168675 74.97534071 23.97322823 74.98073006 22.26477623 C74.98796916 19.87530795 74.98898972 17.485913 74.98852539 15.09643555 C74.9939183 14.03260399 74.9939183 14.03260399 74.99942017 12.94728088 C74.99301416 9.90886302 74.84441367 7.59574101 73.875 4.6875 C72.52921875 4.99494141 72.52921875 4.99494141 71.15625 5.30859375 C49.92107144 9.89346185 30.81877087 7.7207289 9.43359375 4.81640625 C-10.48028479 2.13587313 -28.21876583 0.58482821 -47.125 8.6875 Z " fill="#BF141C" transform="translate(50.125,1.3125)"/>
<path d="M0 0 C1.14436523 0.13865479 2.28873047 0.27730957 3.46777344 0.42016602 C5.71975549 0.69502807 7.97139993 0.97267384 10.22265625 1.25341797 C12.7614879 1.56503908 15.30074592 1.85419182 17.84375 2.12890625 C24.00509964 2.85957912 28.51994707 3.45142388 33.25 7.625 C29.32656516 8.93281161 26.05734798 8.21521079 22.05859375 7.62890625 C20.37308422 7.39751424 18.68753593 7.16640445 17.00195312 6.93554688 C14.36920068 6.56691791 11.73706943 6.19462956 9.10571289 5.81616211 C-0.11630409 4.49973746 -9.21512323 3.39540989 -18.54296875 3.37890625 C-19.61485191 3.37619469 -19.61485191 3.37619469 -20.70838928 3.37342834 C-29.77550682 3.49284268 -38.20057567 5.74599101 -46.75 8.625 C-46.74476318 9.36733887 -46.73952637 10.10967773 -46.73413086 10.87451172 C-46.65092225 24.59445302 -46.6653003 38.28804656 -47.1875 52 C-47.22673584 53.06718262 -47.26597168 54.13436523 -47.30639648 55.23388672 C-47.91555505 69.79055505 -47.91555505 69.79055505 -50.75 72.625 C-50.75 50.515 -50.75 28.405 -50.75 5.625 C-32.49905505 -0.89319462 -18.71267891 -2.30278282 0 0 Z " fill="#C8222C" transform="translate(50.75,1.375)"/>
<path d="M0 0 C0 14.52 0 29.04 0 44 C-0.66 44 -1.32 44 -2 44 C-2.33 55.88 -2.66 67.76 -3 80 C-3.33 80 -3.66 80 -4 80 C-4 55.58 -4 31.16 -4 6 C-6.97 6.99 -9.94 7.98 -13 9 C-23.00181473 10.98819035 -33.94412778 12.131208 -44 10 C-46.92578125 7.9453125 -46.92578125 7.9453125 -49 6 C-48.4016333 6.01047363 -47.8032666 6.02094727 -47.18676758 6.03173828 C-32.18396145 6.25938097 -18.62874497 5.98182268 -4.36328125 0.8046875 C-2 0 -2 0 0 0 Z " fill="#C4151D" transform="translate(128,0)"/>
<path d="M0 0 C0.66 0 1.32 0 2 0 C2 14.85 2 29.7 2 45 C-13.84689067 51.33875627 -29.99119773 53.99988859 -47 51 C-47.99 50.34 -48.98 49.68 -50 49 C-50 48.34 -50 47.68 -50 47 C-49.09870361 46.98541748 -48.19740723 46.97083496 -47.26879883 46.95581055 C-43.85955671 46.89401489 -40.45102552 46.81973806 -37.04223633 46.73754883 C-35.57912094 46.70470763 -34.11589122 46.6765552 -32.65258789 46.65356445 C-23.05509478 46.49881928 -14.31384155 45.57126373 -5 43 C-3.66745822 42.66351629 -2.33445655 42.32880787 -1 42 C-1.16677246 41.1740332 -1.33354492 40.34806641 -1.50537109 39.49707031 C-2.05106802 35.63894453 -2.04528769 31.92611958 -1.9140625 28.046875 C-1.89282318 27.3054425 -1.87158386 26.56401001 -1.84970093 25.80010986 C-1.80369215 24.24360618 -1.75478728 22.68718567 -1.703125 21.13085938 C-1.62479196 18.74365994 -1.55785569 16.35632788 -1.4921875 13.96875 C-1.44598782 12.45310426 -1.39913591 10.93747824 -1.3515625 9.421875 C-1.33171295 8.7073114 -1.3118634 7.9927478 -1.29141235 7.25653076 C-1.11526419 2.23052838 -1.11526419 2.23052838 0 0 Z " fill="#B31015" transform="translate(126,44)"/>
<path d="M0 0 C1.9451 2.91765 2.45276317 4.62537285 3 8 C5.64 8 8.28 8 11 8 C10.13375 8.639375 9.2675 9.27875 8.375 9.9375 C5.72984639 12.66285308 5.72984639 12.66285308 6.11328125 15.3359375 C6.6394653 17.60532993 7.24624018 19.79633276 8 22 C7.2575 21.690625 6.515 21.38125 5.75 21.0625 C4.38875 20.5365625 4.38875 20.5365625 3 20 C2.0409375 19.5359375 2.0409375 19.5359375 1.0625 19.0625 C-2.52753432 18.95371108 -4.46440472 21.63728622 -7 24 C-6.34 20.7 -5.68 17.4 -5 14 C-6.98 13.34 -8.96 12.68 -11 12 C-10.67 11.34 -10.34 10.68 -10 10 C-7.35139573 9.40644386 -4.70802678 9.25790731 -2 9 C-1.855625 7.700625 -1.71125 6.40125 -1.5625 5.0625 C-1.125 1.125 -1.125 1.125 0 0 Z " fill="#FEF202" transform="translate(21,11)"/>
<path d="M0 0 C0 0.66 0 1.32 0 2 C0.66 2.33 1.32 2.66 2 3 C2 3.99 2 4.98 2 6 C0.35 6 -1.3 6 -3 6 C-3.33 4.35 -3.66 2.7 -4 1 C-2 0 -2 0 0 0 Z " fill="#FBCE0B" transform="translate(52,30)"/>
<path d="M0 0 C2.62187494 1.04874998 3.79371361 1.64931313 5.25 4.125 C5.4975 4.74375 5.745 5.3625 6 6 C4.35 6.33 2.7 6.66 1 7 C-0.0625 5.1875 -0.0625 5.1875 -1 3 C-0.67 2.01 -0.34 1.02 0 0 Z " fill="#FBD00A" transform="translate(49,16)"/>
<path d="M0 0 C1.32 0 2.64 0 4 0 C4.66 1.32 5.32 2.64 6 4 C5.34 4 4.68 4 4 4 C3.67 4.99 3.34 5.98 3 7 C3 6.34 3 5.68 3 5 C1.68 4.67 0.36 4.34 -1 4 C-0.67 2.68 -0.34 1.36 0 0 Z " fill="#FCD809" transform="translate(40,7)"/>
<path d="M0 0 C1.32 0 2.64 0 4 0 C4.66 1.32 5.32 2.64 6 4 C5.34 4 4.68 4 4 4 C3.67 4.66 3.34 5.32 3 6 C1.68 5.34 0.36 4.68 -1 4 C-0.67 2.68 -0.34 1.36 0 0 Z " fill="#FCD609" transform="translate(40,38)"/>
</svg>
