<?xml version="1.0" encoding="UTF-8"?>
<svg version="1.1" xmlns="http://www.w3.org/2000/svg" width="128" height="96">
<path d="M0 0 C1.12035645 0.13317627 2.24071289 0.26635254 3.39501953 0.40356445 C9.18980929 1.09519542 14.98031702 1.81798472 20.76953125 2.5546875 C21.86837646 2.69221436 22.96722168 2.82974121 24.09936523 2.97143555 C26.17136343 3.23167512 28.24257585 3.4982886 30.31274414 3.77270508 C40.17240561 5.01108055 49.78106842 5.28010441 59.5625 3.375 C60.23539062 3.25705078 60.90828125 3.13910156 61.6015625 3.01757812 C67.25045297 1.97445915 72.35586509 0.36199047 77.9375 -1.3125 C77.9375 28.0575 77.9375 57.4275 77.9375 87.6875 C60.44125219 94.68599912 45.63434038 95.58676347 27.125 93.25 C19.22538119 92.27016598 11.36190207 91.44463418 3.4152832 90.94897461 C0.9375 90.6875 0.9375 90.6875 -0.0625 89.6875 C-10.65805978 88.07729298 -21.15465301 88.17365592 -31.6875 90 C-32.7077124 90.17644043 -32.7077124 90.17644043 -33.74853516 90.35644531 C-39.38794757 91.4117266 -44.48649694 93.01469908 -50.0625 94.6875 C-50.0625 65.3175 -50.0625 35.9475 -50.0625 5.6875 C-32.88613861 -1.18304456 -18.18557639 -2.25485644 0 0 Z " fill="#DA0000" transform="translate(50.0625,1.3125)"/>
<path d="M0 0 C1.12035645 0.13317627 2.24071289 0.26635254 3.39501953 0.40356445 C9.18980929 1.09519542 14.98031702 1.81798472 20.76953125 2.5546875 C21.86837646 2.69221436 22.96722168 2.82974121 24.09936523 2.97143555 C26.17136343 3.23167512 28.24257585 3.4982886 30.31274414 3.77270508 C40.17240561 5.01108055 49.78106842 5.28010441 59.5625 3.375 C60.23539062 3.25705078 60.90828125 3.13910156 61.6015625 3.01757812 C67.17422789 1.9885348 72.53714494 0.39034603 77.9375 -1.3125 C77.98689115 2.78088652 78.02321501 6.87415798 78.04736328 10.96777344 C78.05742877 12.36070781 78.07108234 13.75362102 78.08837891 15.14648438 C78.1126022 17.1470436 78.12290814 19.14775615 78.1328125 21.1484375 C78.14328613 22.35290527 78.15375977 23.55737305 78.16455078 24.79833984 C77.9375 27.6875 77.9375 27.6875 75.9375 29.6875 C73.85573567 30.44011603 71.74652871 31.1181064 69.625 31.75 C68.49449219 32.09160156 67.36398438 32.43320312 66.19921875 32.78515625 C48.34001119 37.7258472 28.36979891 34.93280892 10.3125 32.1875 C-11.38829138 28.90527935 -29.01011237 28.67003746 -50.0625 35.6875 C-50.0625 25.7875 -50.0625 15.8875 -50.0625 5.6875 C-32.88613861 -1.18304456 -18.18557639 -2.25485644 0 0 Z " fill="#010000" transform="translate(50.0625,1.3125)"/>
<path d="M0 0 C0 9.9 0 19.8 0 30 C-17.49624781 36.99849912 -32.30315962 37.89926347 -50.8125 35.5625 C-58.71211881 34.58266598 -66.57559793 33.75713418 -74.5222168 33.26147461 C-77 33 -77 33 -78 32 C-88.59555978 30.38979298 -99.09215301 30.48615592 -109.625 32.3125 C-110.3051416 32.43012695 -110.9852832 32.54775391 -111.68603516 32.66894531 C-117.32544757 33.7242266 -122.42399694 35.32719908 -128 37 C-128 27.43 -128 17.86 -128 8 C-116.95986833 2.47993417 -107.58405005 0.43569025 -95.3125 0.5 C-93.52356323 0.5009668 -93.52356323 0.5009668 -91.69848633 0.50195312 C-81.29882059 0.66833704 -71.30878059 2.14209647 -61.07321167 3.85351562 C-42.88151922 6.87811584 -22.63102259 9.02810745 -5.21875 1.39453125 C-2 0 -2 0 0 0 Z " fill="#FEC500" transform="translate(128,59)"/>
<path d="M0 0 C0.66 0 1.32 0 2 0 C2 9.9 2 19.8 2 30 C-15.49624781 36.99849912 -30.30315962 37.89926347 -48.8125 35.5625 C-56.71211881 34.58266598 -64.57559793 33.75713418 -72.5222168 33.26147461 C-75 33 -75 33 -76 32 C-86.59555978 30.38979298 -97.09215301 30.48615592 -107.625 32.3125 C-108.3051416 32.43012695 -108.9852832 32.54775391 -109.68603516 32.66894531 C-115.32544757 33.7242266 -120.42399694 35.32719908 -126 37 C-126 27.43 -126 17.86 -126 8 C-125.01 7.67 -124.02 7.34 -123 7 C-123 15.25 -123 23.5 -123 32 C-119.04 30.515 -119.04 30.515 -115 29 C-107.82823461 26.99330332 -100.66587979 26.58060269 -93.25 26.5625 C-92.11328857 26.55863281 -90.97657715 26.55476563 -89.80541992 26.55078125 C-77.5927156 26.70616123 -65.60773745 28.38447697 -53.54980469 30.22094727 C-40.78268973 32.13507715 -28.14473275 33.29527538 -15.375 30.625 C-13.46847656 30.24214844 -13.46847656 30.24214844 -11.5234375 29.8515625 C-8.26822411 29.06482578 -5.16743727 28.07880921 -2 27 C-1.96241577 25.82642944 -1.96241577 25.82642944 -1.92407227 24.62915039 C-1.80850212 21.10675051 -1.68560051 17.5846444 -1.5625 14.0625 C-1.52318359 12.83080078 -1.48386719 11.59910156 -1.44335938 10.33007812 C-1.40146484 9.16025391 -1.35957031 7.99042969 -1.31640625 6.78515625 C-1.27974854 5.70113525 -1.24309082 4.61711426 -1.20532227 3.50024414 C-1 1 -1 1 0 0 Z " fill="#C59B00" transform="translate(126,59)"/>
<path d="M0 0 C0.66 0 1.32 0 2 0 C2 9.9 2 19.8 2 30 C-13.22603614 36.09041446 -26.30345395 37.63568489 -42.5 36.6875 C-43.5003125 36.62949219 -44.500625 36.57148437 -45.53125 36.51171875 C-48 36 -48 36 -50 33 C-49.29617187 32.98541748 -48.59234375 32.97083496 -47.8671875 32.95581055 C-32.07146255 32.59107571 -17.07425919 32.10575509 -2 27 C-1.96241577 25.82642944 -1.96241577 25.82642944 -1.92407227 24.62915039 C-1.80850212 21.10675051 -1.68560051 17.5846444 -1.5625 14.0625 C-1.52318359 12.83080078 -1.48386719 11.59910156 -1.44335938 10.33007812 C-1.40146484 9.16025391 -1.35957031 7.99042969 -1.31640625 6.78515625 C-1.27974854 5.70113525 -1.24309082 4.61711426 -1.20532227 3.50024414 C-1 1 -1 1 0 0 Z " fill="#BD8F00" transform="translate(126,59)"/>
<path d="M0 0 C0 9.9 0 19.8 0 30 C-0.99 30.33 -1.98 30.66 -3 31 C-3.01981934 30.19256348 -3.03963867 29.38512695 -3.06005859 28.55322266 C-3.15505899 24.91014125 -3.26483912 21.26765314 -3.375 17.625 C-3.42140625 15.71847656 -3.42140625 15.71847656 -3.46875 13.7734375 C-3.50742188 12.56171875 -3.54609375 11.35 -3.5859375 10.1015625 C-3.6173584 8.98088379 -3.6487793 7.86020508 -3.68115234 6.70556641 C-3.73411203 3.85289588 -3.73411203 3.85289588 -6 2 C-1.125 0 -1.125 0 0 0 Z " fill="#A30000" transform="translate(128,29)"/>
<path d="M0 0 C0.66 0 1.32 0 2 0 C2 9.9 2 19.8 2 30 C1.01 30.33 0.02 30.66 -1 31 C-1.02465622 26.74585377 -1.04283899 22.49174502 -1.05493164 18.23754883 C-1.05997101 16.78929927 -1.06680253 15.34105483 -1.07543945 13.89282227 C-1.08752247 11.81525412 -1.09323211 9.73775303 -1.09765625 7.66015625 C-1.10289307 6.40855713 -1.10812988 5.15695801 -1.11352539 3.86743164 C-1 1 -1 1 0 0 Z " fill="#BA0100" transform="translate(1,36)"/>
<path d="M0 0 C0.66 0 1.32 0 2 0 C2.02909769 4.06248489 2.04683174 8.12494286 2.0625 12.1875 C2.07087891 13.33798828 2.07925781 14.48847656 2.08789062 15.67382812 C2.09111328 16.78564453 2.09433594 17.89746094 2.09765625 19.04296875 C2.10289307 20.06414795 2.10812988 21.08532715 2.11352539 22.13745117 C2.00519467 24.86901616 1.61706868 27.34169374 1 30 C0.34 30 -0.32 30 -1 30 C-1.02465746 25.8882744 -1.04283959 21.77657722 -1.05493164 17.66479492 C-1.0599708 16.26504772 -1.06680216 14.8653058 -1.07543945 13.46557617 C-1.0875232 11.45754223 -1.09269807 9.44947043 -1.09765625 7.44140625 C-1.10289307 6.23170166 -1.10812988 5.02199707 -1.11352539 3.77563477 C-1 1 -1 1 0 0 Z " fill="#D0A900" transform="translate(1,66)"/>
</svg>
