<?xml version="1.0" encoding="UTF-8"?>
<svg version="1.1" xmlns="http://www.w3.org/2000/svg" width="80" height="53">
<path d="M0 0 C26.4 0 52.8 0 80 0 C80 17.49 80 34.98 80 53 C53.6 53 27.2 53 0 53 C0 35.51 0 18.02 0 0 Z " fill="#FDBF00" transform="translate(0,0)"/>
<path d="M0 0 C26.4 0 52.8 0 80 0 C80 4.29 80 8.58 80 13 C53.6 13 27.2 13 0 13 C0 8.71 0 4.42 0 0 Z " fill="#C60B1E" transform="translate(0,40)"/>
<path d="M0 0 C26.4 0 52.8 0 80 0 C80 4.29 80 8.58 80 13 C53.6 13 27.2 13 0 13 C0 8.71 0 4.42 0 0 Z " fill="#C60B1E" transform="translate(0,0)"/>
<path d="M0 0 C2.5 1.3125 2.5 1.3125 5 3 C5 3.99 5 4.98 5 6 C6.65 6 8.3 6 10 6 C11.14806378 15.41002278 11.14806378 15.41002278 11 20 C9.68 20 8.36 20 7 20 C6.67 19.34 6.34 18.68 6 18 C5.195625 18.5259375 5.195625 18.5259375 4.375 19.0625 C1.25340583 20.29470823 -0.73505149 19.59968442 -4 19 C-5.65 19.33 -7.3 19.66 -9 20 C-9 15.38 -9 10.76 -9 6 C-7.68 6.33 -6.36 6.66 -5 7 C-4.34 6.67 -3.68 6.34 -3 6 C-3.33 5.01 -3.66 4.02 -4 3 C-3.01 2.67 -2.02 2.34 -1 2 C-0.67 1.34 -0.34 0.68 0 0 Z " fill="#8B492D" transform="translate(26,17)"/>
<path d="M0 0 C1.14806378 9.41002278 1.14806378 9.41002278 1 14 C-0.32 14 -1.64 14 -3 14 C-3.33 11.69 -3.66 9.38 -4 7 C-5.32 6.67 -6.64 6.34 -8 6 C-8.33 4.35 -8.66 2.7 -9 1 C-5.94152152 0.45627049 -3.11227195 0 0 0 Z " fill="#C7A23C" transform="translate(36,23)"/>
<path d="M0 0 C0.99 0 1.98 0 3 0 C3.33 2.31 3.66 4.62 4 7 C4.66 7 5.32 7 6 7 C6 8.65 6 10.3 6 12 C7.32 11.67 8.64 11.34 10 11 C10.33 11.99 10.66 12.98 11 14 C10.113125 13.814375 9.22625 13.62875 8.3125 13.4375 C4.70354365 12.77951107 4.70354365 12.77951107 0 14 C0 9.38 0 4.76 0 0 Z " fill="#C89935" transform="translate(17,23)"/>
<path d="M0 0 C0.433125 0.9590625 0.433125 0.9590625 0.875 1.9375 C1.82823451 4.15206079 1.82823451 4.15206079 4 5 C4 5.66 4 6.32 4 7 C4.99 7 5.98 7 7 7 C7.33 6.34 7.66 5.68 8 5 C8.99 5.33 9.98 5.66 11 6 C11 7.65 11 9.3 11 11 C7.67465243 12.10844919 5.37817425 11.84454356 2 11 C2 9.35 2 7.7 2 6 C1.34 6 0.68 6 0 6 C0 5.34 0 4.68 0 4 C-0.99 3.67 -1.98 3.34 -3 3 C-2.01 3 -1.02 3 0 3 C0 2.01 0 1.02 0 0 Z " fill="#AB460F" transform="translate(21,24)"/>
<path d="M0 0 C1.65 0.99 3.3 1.98 5 3 C4.67 4.32 4.34 5.64 4 7 C1.69 6.67 -0.62 6.34 -3 6 C-3.33 5.01 -3.66 4.02 -4 3 C-3.01 2.67 -2.02 2.34 -1 2 C-0.67 1.34 -0.34 0.68 0 0 Z " fill="#AB5A0E" transform="translate(26,17)"/>
<path d="M0 0 C1.65 0 3.3 0 5 0 C5 1.98 5 3.96 5 6 C3.68 5.67 2.36 5.34 1 5 C0.67 3.35 0.34 1.7 0 0 Z " fill="#CBACB3" transform="translate(27,24)"/>
<path d="M0 0 C0.99 0 1.98 0 3 0 C3.33 1.98 3.66 3.96 4 6 C2.02 6.99 2.02 6.99 0 8 C-0.38063221 5.6739143 -0.71269945 3.33944736 -1 1 C-0.67 0.67 -0.34 0.34 0 0 Z " fill="#CA8824" transform="translate(33,23)"/>
<path d="M0 0 C1.32 0.33 2.64 0.66 4 1 C4 2.65 4 4.3 4 6 C2.68 6.33 1.36 6.66 0 7 C0 4.69 0 2.38 0 0 Z " fill="#B34E1A" transform="translate(28,29)"/>
<path d="M0 0 C0.66 0 1.32 0 2 0 C2 1.65 2 3.3 2 5 C3.32 4.67 4.64 4.34 6 4 C6.33 4.99 6.66 5.98 7 7 C1.125 6.125 1.125 6.125 0 5 C-0.04063832 3.33382885 -0.042721 1.66611905 0 0 Z " fill="#B37E2E" transform="translate(21,30)"/>
</svg>
