<?xml version="1.0" encoding="UTF-8"?>
<svg version="1.1" xmlns="http://www.w3.org/2000/svg" width="128" height="96">
<path d="M0 0 C1.12035645 0.13317627 2.24071289 0.26635254 3.39501953 0.40356445 C9.18980929 1.09519542 14.98031702 1.81798472 20.76953125 2.5546875 C21.86837646 2.69221436 22.96722168 2.82974121 24.09936523 2.97143555 C26.17136343 3.23167512 28.24257585 3.4982886 30.31274414 3.77270508 C40.17240561 5.01108055 49.78106842 5.28010441 59.5625 3.375 C60.23539062 3.25705078 60.90828125 3.13910156 61.6015625 3.01757812 C67.25045297 1.97445915 72.35586509 0.36199047 77.9375 -1.3125 C77.9375 28.0575 77.9375 57.4275 77.9375 87.6875 C71.35630957 90.31997617 65.77332883 92.52785047 58.9375 93.6875 C57.9475 93.85572266 57.9475 93.85572266 56.9375 94.02734375 C43.34296157 95.90689168 30.04917883 94.44007905 16.625 92.25 C13.71304239 91.7877794 10.8000999 91.33206108 7.88671875 90.87890625 C6.84792572 90.71640884 6.84792572 90.71640884 5.78814697 90.55062866 C-6.85010407 88.60798792 -19.04987269 87.80869732 -31.6875 90 C-32.7077124 90.17644043 -32.7077124 90.17644043 -33.74853516 90.35644531 C-39.38794757 91.4117266 -44.48649694 93.01469908 -50.0625 94.6875 C-50.0625 65.3175 -50.0625 35.9475 -50.0625 5.6875 C-32.88613861 -1.18304456 -18.18557639 -2.25485644 0 0 Z " fill="#EA2432" transform="translate(50.0625,1.3125)"/>
<path d="M0 0 C0 29.37 0 58.74 0 89 C-5.28 89 -10.56 89 -16 89 C-19.06491179 89.34243468 -21.88756881 89.69977177 -24.875 90.3125 C-25.85726563 90.48942383 -25.85726563 90.48942383 -26.859375 90.66992188 C-32.42079132 91.7248598 -37.51190965 93.3535729 -43 95 C-43 65.63 -43 36.26 -43 6 C-29.06817727 0.42727091 -14.96514127 -2.99302825 0 0 Z " fill="#022D9C" transform="translate(43,1)"/>
<path d="M0 0 C14.06302789 1.00450199 28.04284333 3.00612048 42 5 C42 34.7 42 64.4 42 95 C21.21 92.03 21.21 92.03 0 89 C0 59.63 0 30.26 0 0 Z " fill="#FEFEFE" transform="translate(43,1)"/>
<path d="M0 0 C0 29.37 0 58.74 0 89 C-13.07383424 94.2295337 -28.78365145 98.79102628 -43 95 C-42.67 93.68 -42.34 92.36 -42 91 C-40.89785156 91.04640625 -39.79570313 91.0928125 -38.66015625 91.140625 C-26.45446875 91.48889431 -15.60067233 89.86689078 -4 86 C-4.00523682 84.78981201 -4.01047363 83.57962402 -4.01586914 82.33276367 C-4.11749238 56.53442768 -3.95320619 30.78219929 -3 5 C-4.134375 5.45375 -5.26875 5.9075 -6.4375 6.375 C-14.89673486 9.50516709 -22.56474048 10.27982578 -31.5625 10.125 C-32.57119141 10.11597656 -33.57988281 10.10695313 -34.61914062 10.09765625 C-37.07968457 10.07433356 -39.53970896 10.04160763 -42 10 C-42.33 8.68 -42.66 7.36 -43 6 C-42.04222656 6.03480469 -41.08445312 6.06960937 -40.09765625 6.10546875 C-32.59546852 6.29111933 -25.40095448 5.99471808 -18 4.6875 C-17.31945557 4.56979248 -16.63891113 4.45208496 -15.93774414 4.33081055 C-10.74139711 3.33948986 -5.11343797 0 0 0 Z " fill="#BD212E" transform="translate(128,0)"/>
<path d="M0 0 C0.33 0 0.66 0 1 0 C1.14486108 4.47990589 1.28715497 8.95988442 1.42724609 13.43994141 C1.47507274 14.95851753 1.52355597 16.47707315 1.57275391 17.99560547 C1.86399209 27.00021477 2.07846894 35.98914987 2 45 C3.794375 44.319375 3.794375 44.319375 5.625 43.625 C16.83427027 39.92944371 28.32699564 39.70572258 40 40 C40.495 42.475 40.495 42.475 41 45 C40.04222656 44.96519531 39.08445313 44.93039063 38.09765625 44.89453125 C30.63510767 44.7098147 23.48425982 44.99617578 16.125 46.3125 C15.46121338 46.43020752 14.79742676 46.54791504 14.11352539 46.66918945 C10.24778071 47.41393972 6.5086458 48.41481213 2.74169922 49.55932617 C1.85086639 49.82919846 0.96003357 50.09907074 0.04220581 50.37712097 C-0.63172211 50.58267105 -1.30565002 50.78822113 -2 51 C-2.05064156 44.21902652 -2.08570883 37.43810167 -2.10986328 30.65698242 C-2.11993107 28.3493467 -2.13358623 26.04172375 -2.15087891 23.73413086 C-2.17509287 20.42037809 -2.18647526 17.10679374 -2.1953125 13.79296875 C-2.20563507 12.7585112 -2.21595764 11.72405365 -2.22659302 10.6582489 C-2.22674408 9.6974794 -2.22689514 8.7367099 -2.22705078 7.74682617 C-2.231492 6.90077316 -2.23593323 6.05472015 -2.24050903 5.18302917 C-2 3 -2 3 0 0 Z " fill="#041C75" transform="translate(2,45)"/>
<path d="M0 0 C0 0.99 0 1.98 0 3 C-0.98057373 3.05945801 -0.98057373 3.05945801 -1.98095703 3.12011719 C-5.03021063 3.31421422 -8.07736173 3.53205209 -11.125 3.75 C-12.15238281 3.811875 -13.17976563 3.87375 -14.23828125 3.9375 C-22.59582182 4.56042228 -30.04543314 6.4670397 -38 9 C-38.01458252 10.04454346 -38.02916504 11.08908691 -38.04418945 12.1652832 C-38.10215551 16.04014345 -38.17938774 19.91442151 -38.26245117 23.78881836 C-38.29570863 25.46580559 -38.32373808 27.14290497 -38.34643555 28.82006836 C-38.37996737 31.23079225 -38.43227978 33.64048762 -38.48828125 36.05078125 C-38.49467117 36.80087967 -38.5010611 37.55097809 -38.50764465 38.32380676 C-38.63263083 42.74696937 -38.72355368 43.72355368 -42 47 C-42 33.47 -42 19.94 -42 6 C-29.46323245 0.98529298 -13.66695323 -3.94058606 0 0 Z " fill="#022F8C" transform="translate(42,1)"/>
<path d="M0 0 C0.33 0 0.66 0 1 0 C1 10.89 1 21.78 1 33 C-12.07383424 38.2295337 -27.78365145 42.79102628 -42 39 C-41.67 37.68 -41.34 36.36 -41 35 C-39.89785156 35.04640625 -38.79570313 35.0928125 -37.66015625 35.140625 C-26.47950981 35.45968187 -16.74566005 34.00637006 -6 31 C-4.66758646 30.66300882 -3.33446506 30.3287733 -2 30 C-2.01571045 28.74340576 -2.01571045 28.74340576 -2.03173828 27.46142578 C-2.06580019 24.35661836 -2.09088911 21.25190608 -2.10986328 18.14697266 C-2.12488107 16.1408864 -2.15028981 14.13488676 -2.17578125 12.12890625 C-2.18544922 10.24365234 -2.18544922 10.24365234 -2.1953125 8.3203125 C-2.21102295 6.57645264 -2.21102295 6.57645264 -2.22705078 4.79736328 C-2 2 -2 2 0 0 Z " fill="#AE1621" transform="translate(127,56)"/>
<path d="M0 0 C9.72003611 0.55972906 19.24522007 1.62058057 28.875 3.0625 C30.14730469 3.24876953 31.41960937 3.43503906 32.73046875 3.62695312 C35.82101479 4.0800783 38.91079922 4.53780828 42 5 C42 6.32 42 7.64 42 9 C36.4565162 9.10869576 31.25352568 8.75830187 25.78125 7.90625 C25.03790405 7.79526978 24.29455811 7.68428955 23.52868652 7.56994629 C21.18492929 7.2187592 18.84249047 6.85952934 16.5 6.5 C14.89851819 6.25857872 13.29695624 6.01768841 11.6953125 5.77734375 C7.79592263 5.19102357 3.89769276 4.59749367 0 4 C0 2.68 0 1.36 0 0 Z " fill="#D4D4D4" transform="translate(43,1)"/>
<path d="M0 0 C8.50266062 0.4426879 16.7648025 1.52440043 25.15673828 2.90673828 C30.76252485 3.82491765 36.33577099 4.53571893 42 5 C42 6.65 42 8.3 42 10 C28.14 8.02 14.28 6.04 0 4 C0 2.68 0 1.36 0 0 Z " fill="#C7C6C6" transform="translate(43,86)"/>
<path d="M0 0 C0.33 0 0.66 0 1 0 C1.14530092 4.4432713 1.28755678 8.8866277 1.42724609 13.33007812 C1.47495489 14.83498631 1.52343064 16.33987042 1.57275391 17.84472656 C1.71510142 22.19649329 1.83784373 26.54813876 1.94140625 30.90100098 C1.99883638 32.95831575 2.08376473 35.01313762 2.171875 37.06933594 C2.20796875 38.31231445 2.2440625 39.55529297 2.28125 40.8359375 C2.32314453 41.93212402 2.36503906 43.02831055 2.40820312 44.15771484 C1.90349435 47.67196101 0.70409172 48.79743071 -2 51 C-2.05064156 44.21902652 -2.08570883 37.43810167 -2.10986328 30.65698242 C-2.11993107 28.3493467 -2.13358623 26.04172375 -2.15087891 23.73413086 C-2.17509287 20.42037809 -2.18647526 17.10679374 -2.1953125 13.79296875 C-2.20563507 12.7585112 -2.21595764 11.72405365 -2.22659302 10.6582489 C-2.22674408 9.6974794 -2.22689514 8.7367099 -2.22705078 7.74682617 C-2.231492 6.90077316 -2.23593323 6.05472015 -2.24050903 5.18302917 C-2 3 -2 3 0 0 Z " fill="#002180" transform="translate(2,45)"/>
<path d="M0 0 C0.33 0 0.66 0 1 0 C1.049377 4.52065428 1.08570823 9.04115217 1.10986328 13.56201172 C1.11993118 15.10045098 1.13358646 16.63887107 1.15087891 18.17724609 C1.17509317 20.38644133 1.18647491 22.59538395 1.1953125 24.8046875 C1.20563507 25.49432587 1.21595764 26.18396423 1.22659302 26.89450073 C1.22699478 28.59800906 1.12191026 30.30085943 1 32 C0.34 32.66 -0.32 33.32 -1 34 C-1.37268887 36.91188245 -1.37268887 36.91188245 -1.4140625 40.3203125 C-1.45273438 41.57714844 -1.49140625 42.83398438 -1.53125 44.12890625 C-1.5621875 45.44761719 -1.593125 46.76632813 -1.625 48.125 C-1.66318029 49.46486918 -1.70223206 50.80471383 -1.7421875 52.14453125 C-1.8367203 55.42954619 -1.92227156 58.71455138 -2 62 C-2.33 62 -2.66 62 -3 62 C-3.02560879 55.68693927 -3.0429741 49.37389222 -3.05493164 43.06079102 C-3.059923 40.91853332 -3.06671843 38.77627896 -3.07543945 36.6340332 C-3.20166667 4.8025 -3.20166667 4.8025 0 0 Z " fill="#C01924" transform="translate(127,24)"/>
</svg>
