<?xml version="1.0" encoding="UTF-8"?>
<svg version="1.1" xmlns="http://www.w3.org/2000/svg" width="128" height="96">
<path d="M0 0 C1.12035645 0.13317627 2.24071289 0.26635254 3.39501953 0.40356445 C9.18980929 1.09519542 14.98031702 1.81798472 20.76953125 2.5546875 C21.86837646 2.69221436 22.96722168 2.82974121 24.09936523 2.97143555 C26.17136343 3.23167512 28.24257585 3.4982886 30.31274414 3.77270508 C40.17240561 5.01108055 49.78106842 5.28010441 59.5625 3.375 C60.23539062 3.25705078 60.90828125 3.13910156 61.6015625 3.01757812 C67.25045297 1.97445915 72.35586509 0.36199047 77.9375 -1.3125 C77.9375 28.0575 77.9375 57.4275 77.9375 87.6875 C71.35630957 90.31997617 65.77332883 92.52785047 58.9375 93.6875 C57.9475 93.85572266 57.9475 93.85572266 56.9375 94.02734375 C43.34296157 95.90689168 30.04917883 94.44007905 16.625 92.25 C13.71304239 91.7877794 10.8000999 91.33206108 7.88671875 90.87890625 C6.84792572 90.71640884 6.84792572 90.71640884 5.78814697 90.55062866 C-6.85010407 88.60798792 -19.04987269 87.80869732 -31.6875 90 C-32.7077124 90.17644043 -32.7077124 90.17644043 -33.74853516 90.35644531 C-39.38794757 91.4117266 -44.48649694 93.01469908 -50.0625 94.6875 C-50.0625 65.3175 -50.0625 35.9475 -50.0625 5.6875 C-32.88613861 -1.18304456 -18.18557639 -2.25485644 0 0 Z " fill="#C72630" transform="translate(50.0625,1.3125)"/>
<path d="M0 0 C0 29.37 0 58.74 0 89 C-5.28 89 -10.56 89 -16 89 C-19.06491179 89.34243468 -21.88756881 89.69977177 -24.875 90.3125 C-25.85726563 90.48942383 -25.85726563 90.48942383 -26.859375 90.66992188 C-32.42079132 91.7248598 -37.51190965 93.3535729 -43 95 C-43 65.63 -43 36.26 -43 6 C-29.06817727 0.42727091 -14.96514127 -2.99302825 0 0 Z " fill="#029950" transform="translate(43,1)"/>
<path d="M0 0 C14.06302789 1.00450199 28.04284333 3.00612048 42 5 C42 34.7 42 64.4 42 95 C21.21 92.03 21.21 92.03 0 89 C0 59.63 0 30.26 0 0 Z " fill="#FEFEFE" transform="translate(43,1)"/>
<path d="M0 0 C0 29.37 0 58.74 0 89 C-12.14167651 93.8566706 -24.7637872 97.3487678 -38 96 C-40.29296875 94.98828125 -40.29296875 94.98828125 -42 94 C-42 93.34 -42 92.68 -42 92 C-41.4016333 91.95512451 -40.8032666 91.91024902 -40.18676758 91.86401367 C-23.24135424 91.16737452 -23.24135424 91.16737452 -7 87 C-4.49382675 83.44007845 -4.65685965 79.57862019 -4.58935547 75.38574219 C-4.55965668 74.24369827 -4.55965668 74.24369827 -4.52935791 73.07858276 C-4.46630684 70.56813897 -4.41668565 68.05761953 -4.3671875 65.546875 C-4.32603284 63.80379293 -4.28403947 62.06073048 -4.24124146 60.31768799 C-4.13096034 55.7344554 -4.03207185 51.15104507 -3.93554688 46.56750488 C-3.83499922 41.88859273 -3.72368864 37.20993804 -3.61328125 32.53125 C-3.39831453 23.35438672 -3.19538151 14.17729969 -3 5 C-4.83135498 5.70600342 -4.83135498 5.70600342 -6.69970703 6.42626953 C-15.1390043 9.58349516 -23.16045715 10.28867845 -32.125 10.125 C-33.08148438 10.11597656 -34.03796875 10.10695313 -35.0234375 10.09765625 C-37.34923525 10.07439827 -39.67447294 10.04172213 -42 10 C-42.33 8.68 -42.66 7.36 -43 6 C-42.04222656 6.03480469 -41.08445312 6.06960937 -40.09765625 6.10546875 C-32.59546852 6.29111933 -25.40095448 5.99471808 -18 4.6875 C-17.31945557 4.56979248 -16.63891113 4.45208496 -15.93774414 4.33081055 C-10.74139711 3.33948986 -5.11343797 0 0 0 Z " fill="#A41D26" transform="translate(128,0)"/>
<path d="M0 0 C0.33 0 0.66 0 1 0 C1.80644999 18.01000145 2.13954845 35.97248759 2 54 C2.845625 53.72285156 3.69125 53.44570312 4.5625 53.16015625 C6.2640625 52.61681641 6.2640625 52.61681641 8 52.0625 C9.670625 51.52302734 9.670625 51.52302734 11.375 50.97265625 C18.27354538 49.12164569 24.91002279 48.85763024 32 48.9375 C32.77472656 48.94201172 33.54945312 48.94652344 34.34765625 48.95117188 C36.23180524 48.96280242 38.11591365 48.98073094 40 49 C40.495 51.475 40.495 51.475 41 54 C40.04222656 53.96519531 39.08445313 53.93039063 38.09765625 53.89453125 C30.63510767 53.7098147 23.48425982 53.99617578 16.125 55.3125 C15.46121338 55.43020752 14.79742676 55.54791504 14.11352539 55.66918945 C10.24778071 56.41393972 6.5086458 57.41481213 2.74169922 58.55932617 C1.85086639 58.82919846 0.96003357 59.09907074 0.04220581 59.37712097 C-0.63172211 59.58267105 -1.30565002 59.78822113 -2 60 C-2.05076484 52.41946272 -2.08576094 44.8389694 -2.10986328 37.25830078 C-2.11991262 34.68015912 -2.13355426 32.10202882 -2.15087891 29.52392578 C-2.17517367 25.81540111 -2.18649396 22.10702732 -2.1953125 18.3984375 C-2.20563507 17.24822113 -2.21595764 16.09800476 -2.22659302 14.91293335 C-2.22734102 9.56185962 -2.21379019 4.98677305 0 0 Z " fill="#037439" transform="translate(2,36)"/>
<path d="M0 0 C0.33 0 0.66 0 1 0 C1 13.53 1 27.06 1 41 C-11.14167651 45.8566706 -23.7637872 49.3487678 -37 48 C-39.29296875 46.98828125 -39.29296875 46.98828125 -41 46 C-41 45.34 -41 44.68 -41 44 C-40.41734375 43.96036133 -39.8346875 43.92072266 -39.234375 43.87988281 C-36.48833374 43.68450802 -33.74439544 43.46723447 -31 43.25 C-29.62714844 43.1571875 -29.62714844 43.1571875 -28.2265625 43.0625 C-19.55016054 42.34937107 -11.37666942 40.26159444 -3 38 C-2.98018066 36.91992676 -2.96036133 35.83985352 -2.93994141 34.72705078 C-2.86398377 30.72746087 -2.77525184 26.72823948 -2.68261719 22.72900391 C-2.64428659 20.99665593 -2.60944094 19.26422726 -2.578125 17.53173828 C-2.53256235 15.04430251 -2.47455497 12.55742434 -2.4140625 10.0703125 C-2.40251129 9.29317902 -2.39096008 8.51604553 -2.37905884 7.71536255 C-2.22774341 2.22774341 -2.22774341 2.22774341 0 0 Z " fill="#92181F" transform="translate(127,48)"/>
<path d="M0 0 C-0.33 0.99 -0.66 1.98 -1 3 C-2.17433594 3.02578125 -3.34867188 3.0515625 -4.55859375 3.078125 C-15.82823913 3.43615324 -28.69737805 3.84868902 -39 9 C-39.029729 10.13429443 -39.029729 10.13429443 -39.06005859 11.29150391 C-39.15564572 14.73633718 -39.26518891 18.18059201 -39.375 21.625 C-39.4059375 22.81480469 -39.436875 24.00460938 -39.46875 25.23046875 C-39.50742187 26.38417969 -39.54609375 27.53789062 -39.5859375 28.7265625 C-39.6173584 29.78439941 -39.6487793 30.84223633 -39.68115234 31.93212891 C-40.01995688 35.19201999 -40.85610583 37.93757455 -42 41 C-42.33 41 -42.66 41 -43 41 C-43 29.45 -43 17.9 -43 6 C-29.92616576 0.7704663 -14.21634855 -3.79102628 0 0 Z " fill="#058A51" transform="translate(43,1)"/>
<path d="M0 0 C5.5434838 -0.10869576 10.74647432 0.24169813 16.21875 1.09375 C16.96209595 1.20473022 17.70544189 1.31571045 18.47131348 1.43005371 C20.81507071 1.7812408 23.15750953 2.14047066 25.5 2.5 C27.10148181 2.74142128 28.70304376 2.98231159 30.3046875 3.22265625 C34.20407737 3.80897643 38.10230724 4.40250633 42 5 C42 6.65 42 8.3 42 10 C28.14 8.02 14.28 6.04 0 4 C0 2.68 0 1.36 0 0 Z " fill="#C6C6C5" transform="translate(43,86)"/>
<path d="M0 0 C0.33 0 0.66 0 1 0 C1.68428682 18.33272595 2.35006658 36.66602609 3 55 C2.34 55 1.68 55 1 55 C0.67 53.35 0.34 51.7 0 50 C-0.99 50.495 -0.99 50.495 -2 51 C-2.05082181 44.70120703 -2.08578472 38.4024672 -2.10986328 32.10351562 C-2.11990416 29.96189396 -2.13353954 27.82028595 -2.15087891 25.67871094 C-2.17521118 22.59566879 -2.18650242 19.51280835 -2.1953125 16.4296875 C-2.20563507 15.47633514 -2.21595764 14.52298279 -2.22659302 13.54074097 C-2.22741927 8.61542052 -1.9434458 4.61988672 0 0 Z " fill="#008242" transform="translate(2,36)"/>
<path d="M0 0 C9.72003611 0.55972906 19.24522007 1.62058057 28.875 3.0625 C30.14730469 3.24876953 31.41960937 3.43503906 32.73046875 3.62695312 C35.82101479 4.0800783 38.91079922 4.53780828 42 5 C42 6.32 42 7.64 42 9 C32.27996389 8.44027094 22.75477993 7.37941943 13.125 5.9375 C11.85269531 5.75123047 10.58039062 5.56496094 9.26953125 5.37304688 C6.17898521 4.9199217 3.08920078 4.46219172 0 4 C0 2.68 0 1.36 0 0 Z " fill="#D1D1D1" transform="translate(43,1)"/>
<path d="M0 0 C-0.33 0.66 -0.66 1.32 -1 2 C-7.84232888 4.27019264 -14.99900654 4.25510943 -22.125 4.125 C-23.08148438 4.11597656 -24.03796875 4.10695313 -25.0234375 4.09765625 C-27.34923525 4.07439827 -29.67447294 4.04172213 -32 4 C-32.33 2.68 -32.66 1.36 -33 0 C-31.99582031 0.02320313 -30.99164063 0.04640625 -29.95703125 0.0703125 C-21.96838528 0.19396967 -14.54384924 -0.13946247 -6.671875 -1.7578125 C-3.71718537 -2.02563524 -2.46100555 -1.582075 0 0 Z " fill="#A52730" transform="translate(118,6)"/>
</svg>
