<?xml version="1.0" encoding="UTF-8"?>
<svg version="1.1" xmlns="http://www.w3.org/2000/svg" width="128" height="96">
<path d="M0 0 C1.12035645 0.13317627 2.24071289 0.26635254 3.39501953 0.40356445 C9.18980929 1.09519542 14.98031702 1.81798472 20.76953125 2.5546875 C21.86837646 2.69221436 22.96722168 2.82974121 24.09936523 2.97143555 C26.17136343 3.23167512 28.24257585 3.4982886 30.31274414 3.77270508 C45.35751733 5.66233163 59.26421561 4.68548665 73.57421875 -0.5078125 C75.9375 -1.3125 75.9375 -1.3125 77.9375 -1.3125 C77.9375 28.0575 77.9375 57.4275 77.9375 87.6875 C60.76113861 94.55804456 46.06057639 95.62985644 27.875 93.375 C26.19446533 93.1752356 26.19446533 93.1752356 24.47998047 92.97143555 C18.68519071 92.27980458 12.89468298 91.55701528 7.10546875 90.8203125 C6.00662354 90.68278564 4.90777832 90.54525879 3.77563477 90.40356445 C1.70363657 90.14332488 -0.36757585 89.8767114 -2.43774414 89.60229492 C-12.29740561 88.36391945 -21.90606842 88.09489559 -31.6875 90 C-32.69683594 90.17692383 -32.69683594 90.17692383 -33.7265625 90.35742188 C-39.37545297 91.40054085 -44.48086509 93.01300953 -50.0625 94.6875 C-50.0625 65.3175 -50.0625 35.9475 -50.0625 5.6875 C-32.88613861 -1.18304456 -18.18557639 -2.25485644 0 0 Z " fill="#FEFDFD" transform="translate(50.0625,1.3125)"/>
<path d="M0 0 C7.81865925 4.27504111 13.59643742 10.847906 16.421875 19.32421875 C17.14710781 28.54503595 17.66286945 36.84192153 11.421875 44.32421875 C6.74104092 49.13156186 1.09380859 51.02254883 -5.453125 51.76171875 C-13.92356696 51.34731357 -20.63651405 47.1817927 -26.6640625 41.484375 C-32.96344096 34.37507645 -34.1304729 26.3362915 -33.91015625 17.1328125 C-33.44830076 11.83505835 -32.15835384 8.26658568 -28.578125 4.32421875 C-19.47077667 -3.18814739 -10.9008352 -4.82412738 0 0 Z " fill="#BB022F" transform="translate(72.578125,23.67578125)"/>
<path d="M0 0 C1.12035645 0.13317627 2.24071289 0.26635254 3.39501953 0.40356445 C9.18980929 1.09519542 14.98031702 1.81798472 20.76953125 2.5546875 C21.86837646 2.69221436 22.96722168 2.82974121 24.09936523 2.97143555 C26.17136343 3.23167512 28.24257585 3.4982886 30.31274414 3.77270508 C45.35751733 5.66233163 59.26421561 4.68548665 73.57421875 -0.5078125 C75.9375 -1.3125 75.9375 -1.3125 77.9375 -1.3125 C77.9375 28.0575 77.9375 57.4275 77.9375 87.6875 C60.76113861 94.55804456 46.06057639 95.62985644 27.875 93.375 C26.19446533 93.1752356 26.19446533 93.1752356 24.47998047 92.97143555 C18.68519071 92.27980458 12.89468298 91.55701528 7.10546875 90.8203125 C6.00662354 90.68278564 4.90777832 90.54525879 3.77563477 90.40356445 C1.70363657 90.14332488 -0.36757585 89.8767114 -2.43774414 89.60229492 C-12.29740561 88.36391945 -21.90606842 88.09489559 -31.6875 90 C-32.69683594 90.17692383 -32.69683594 90.17692383 -33.7265625 90.35742188 C-39.37545297 91.40054085 -44.48086509 93.01300953 -50.0625 94.6875 C-50.0625 65.3175 -50.0625 35.9475 -50.0625 5.6875 C-32.88613861 -1.18304456 -18.18557639 -2.25485644 0 0 Z M-47.0625 8.6875 C-47.34894682 11.32007753 -47.44093744 13.71661842 -47.40307617 16.35009766 C-47.40351425 17.14042892 -47.40395233 17.93076019 -47.40440369 18.74504089 C-47.40230932 21.3641305 -47.37894826 23.98258437 -47.35546875 26.6015625 C-47.34987509 28.4147405 -47.34560391 30.22792303 -47.34260559 32.04110718 C-47.33113869 36.81864898 -47.30165575 41.59591814 -47.26849365 46.37335205 C-47.23783243 51.24625968 -47.22410871 56.11921126 -47.20898438 60.9921875 C-47.17678773 70.5574116 -47.1255692 80.12243315 -47.0625 89.6875 C-45.98920944 89.4053212 -44.91591888 89.1231424 -43.81010437 88.83241272 C-42.37437671 88.4622702 -40.93856595 88.09244992 -39.50268555 87.72290039 C-38.79857292 87.53686501 -38.0944603 87.35082962 -37.36901093 87.1591568 C-30.52715931 85.4110299 -23.9314513 85.04162625 -16.875 85.125 C-14.9259375 85.13273437 -14.9259375 85.13273437 -12.9375 85.140625 C-0.49092027 85.30700973 11.75582417 86.96743937 24.03588867 88.90795898 C42.43815396 91.7804875 56.92635972 90.69121343 74.9375 84.6875 C74.9375 57.9575 74.9375 31.2275 74.9375 3.6875 C69.6575 5.0075 64.3775 6.3275 58.9375 7.6875 C54.9456889 8.0720931 51.34104868 8.30890006 47.375 8.25 C45.77942261 8.24226562 45.77942261 8.24226562 44.15161133 8.234375 C32.85178916 7.99336287 21.73984225 6.36971443 10.55825806 4.83526611 C-19.12126601 0.1997953 -19.12126601 0.1997953 -47.0625 8.6875 Z " fill="#CBCBCB" transform="translate(50.0625,1.3125)"/>
<path d="M0 0 C0 0.99 0 1.98 0 3 C-0.64437012 2.99476318 -1.28874023 2.98952637 -1.95263672 2.98413086 C-4.92674753 2.96309641 -7.9008426 2.9502568 -10.875 2.9375 C-12.39480469 2.92493164 -12.39480469 2.92493164 -13.9453125 2.91210938 C-20.36263015 2.89154105 -26.62990957 3.21676321 -33 4 C-30.68664104 0.52996156 -29.03547762 -0.58023224 -24.9921875 -1.4140625 C-16.27185851 -2.28287757 -8.4625488 -2.50742187 0 0 Z " fill="#D4D4D4" transform="translate(46,2)"/>
</svg>
