<?xml version="1.0" encoding="UTF-8"?>
<svg version="1.1" xmlns="http://www.w3.org/2000/svg" width="128" height="96">
<path d="M0 0 C1.06887451 0.13317627 2.13774902 0.26635254 3.23901367 0.40356445 C7.75109658 0.9660508 12.26109704 1.54431823 16.77099609 2.12402344 C20.07578271 2.54689037 23.38158382 2.96107185 26.6875 3.375 C27.68152832 3.50624268 28.67555664 3.63748535 29.69970703 3.77270508 C39.57671379 5.0067102 49.20175346 5.28337941 59 3.375 C59.67289062 3.25705078 60.34578125 3.13910156 61.0390625 3.01757812 C66.68795297 1.97445915 71.79336509 0.36199047 77.375 -1.3125 C77.375 28.0575 77.375 57.4275 77.375 87.6875 C60.19863861 94.55804456 45.49807639 95.62985644 27.3125 93.375 C25.63196533 93.1752356 25.63196533 93.1752356 23.91748047 92.97143555 C18.12269071 92.27980458 12.33218298 91.55701528 6.54296875 90.8203125 C5.44412354 90.68278564 4.34527832 90.54525879 3.21313477 90.40356445 C1.14113657 90.14332488 -0.93007585 89.8767114 -3.00024414 89.60229492 C-12.85990561 88.36391945 -22.46856842 88.09489559 -32.25 90 C-33.25933594 90.17692383 -33.25933594 90.17692383 -34.2890625 90.35742188 C-39.93795297 91.40054085 -45.04336509 93.01300953 -50.625 94.6875 C-50.625 65.3175 -50.625 35.9475 -50.625 5.6875 C-33.394283 -1.2047868 -18.28163178 -2.39337605 0 0 Z " fill="#FCFCFC" transform="translate(50.625,1.3125)"/>
<path d="M0 0 C6.2833735 3.22835397 11.47247366 8.15623445 14.6171875 14.51953125 C16.42075587 20.2252125 16.68638752 27.03914232 14.47265625 32.6484375 C11.69854148 37.18944999 8.6131813 41.44404373 3.453125 43.1640625 C-3.61465901 43.84086808 -9.90106061 44.17115462 -15.765625 39.78515625 C-21.89304145 34.20866978 -25.99338287 29.46728943 -26.8828125 20.9453125 C-27.01469678 9.8670328 -27.01469678 9.8670328 -22.546875 5.1640625 C-15.83236455 -1.08796891 -9.04291137 -2.96807214 0 0 Z " fill="#05449C" transform="translate(69.546875,26.8359375)"/>
<path d="M0 0 C1.06887451 0.13317627 2.13774902 0.26635254 3.23901367 0.40356445 C7.75109658 0.9660508 12.26109704 1.54431823 16.77099609 2.12402344 C20.07578271 2.54689037 23.38158382 2.96107185 26.6875 3.375 C27.68152832 3.50624268 28.67555664 3.63748535 29.69970703 3.77270508 C39.57671379 5.0067102 49.20175346 5.28337941 59 3.375 C59.67289062 3.25705078 60.34578125 3.13910156 61.0390625 3.01757812 C66.68795297 1.97445915 71.79336509 0.36199047 77.375 -1.3125 C77.375 28.0575 77.375 57.4275 77.375 87.6875 C60.19863861 94.55804456 45.49807639 95.62985644 27.3125 93.375 C25.63196533 93.1752356 25.63196533 93.1752356 23.91748047 92.97143555 C18.12269071 92.27980458 12.33218298 91.55701528 6.54296875 90.8203125 C5.44412354 90.68278564 4.34527832 90.54525879 3.21313477 90.40356445 C1.14113657 90.14332488 -0.93007585 89.8767114 -3.00024414 89.60229492 C-12.85990561 88.36391945 -22.46856842 88.09489559 -32.25 90 C-33.25933594 90.17692383 -33.25933594 90.17692383 -34.2890625 90.35742188 C-39.93795297 91.40054085 -45.04336509 93.01300953 -50.625 94.6875 C-50.625 65.3175 -50.625 35.9475 -50.625 5.6875 C-33.394283 -1.2047868 -18.28163178 -2.39337605 0 0 Z M-47.625 8.6875 C-47.91144682 11.32007753 -48.00343744 13.71661842 -47.96557617 16.35009766 C-47.96601425 17.14042892 -47.96645233 17.93076019 -47.96690369 18.74504089 C-47.96480932 21.3641305 -47.94144826 23.98258437 -47.91796875 26.6015625 C-47.91237509 28.4147405 -47.90810391 30.22792303 -47.90510559 32.04110718 C-47.89363869 36.81864898 -47.86415575 41.59591814 -47.83099365 46.37335205 C-47.80033243 51.24625968 -47.78660871 56.11921126 -47.77148438 60.9921875 C-47.73928773 70.5574116 -47.6880692 80.12243315 -47.625 89.6875 C-45.68713915 89.20979477 -43.74972326 88.73028429 -41.8125 88.25 C-40.73355469 87.98316406 -39.65460937 87.71632813 -38.54296875 87.44140625 C-36.5509157 86.92672588 -34.57688476 86.33812825 -32.625 85.6875 C-27.79788823 85.38766655 -22.96046913 85.39370014 -18.125 85.375 C-17.41469635 85.37138458 -16.7043927 85.36776917 -15.9725647 85.36404419 C-2.56866456 85.33676723 10.2767476 86.92934244 23.48168945 89.23120117 C41.29421399 92.04038254 57.55081172 91.41717531 74.375 84.6875 C74.375 57.9575 74.375 31.2275 74.375 3.6875 C71.075 4.6775 67.775 5.6675 64.375 6.6875 C57.85749186 7.99100163 51.49989595 7.92911233 44.875 7.9375 C44.18303528 7.93917175 43.49107056 7.94084351 42.77813721 7.94256592 C29.57479898 7.94447408 16.93985178 6.5036111 3.98046875 4.04296875 C-11.52969617 1.27542969 -33.81852091 -0.51681939 -47.625 8.6875 Z " fill="#CCCCCC" transform="translate(50.625,1.3125)"/>
<path d="M0 0 C6.29168022 3.23262191 11.43235029 8.15608076 14.62890625 14.49609375 C15.62314826 17.71442216 15.71847204 20.48672485 15.703125 23.8515625 C15.71085937 25.55892578 15.71085937 25.55892578 15.71875 27.30078125 C15.453125 30.1640625 15.453125 30.1640625 13.453125 32.1640625 C13.35515625 31.56078125 13.2571875 30.9575 13.15625 30.3359375 C12.48174441 26.73082141 11.8476132 23.79524361 9.890625 20.6640625 C6.19672194 18.39089139 2.77836915 17.58153804 -1.546875 18.1640625 C-4.28719277 19.81859398 -6.32444392 21.88622455 -8.546875 24.1640625 C-11.50481223 25.64303111 -13.24907724 25.5996207 -16.546875 25.1640625 C-19.76941902 23.02666085 -22.80021494 20.65738262 -24.546875 17.1640625 C-25.16052433 13.70358639 -25.28246871 10.6105505 -24.546875 7.1640625 C-18.28224975 -0.79871857 -9.69759531 -3.18295306 0 0 Z " fill="#CC333F" transform="translate(69.546875,26.8359375)"/>
<path d="M0 0 C4 5.37142857 4 5.37142857 4 8 C4.66 8 5.32 8 6 8 C7.32 10.64 8.64 13.28 10 16 C8.02 16.99 8.02 16.99 6 18 C6 18.66 6 19.32 6 20 C5.34 20 4.68 20 4 20 C4 20.66 4 21.32 4 22 C1 24 1 24 -1.02636719 23.83618164 C-3.44821185 22.81010322 -4.17134668 21.82381243 -5.578125 19.62109375 C-6.01640625 18.94755859 -6.4546875 18.27402344 -6.90625 17.58007812 C-7.57140625 16.51950195 -7.57140625 16.51950195 -8.25 15.4375 C-8.70890625 14.72658203 -9.1678125 14.01566406 -9.640625 13.28320312 C-10.77093497 11.52886786 -11.88687103 9.76528659 -13 8 C-11.60632076 4.62772951 -10.15724701 3.09506287 -7.0625 1.1875 C-6.37285156 0.74792969 -5.68320313 0.30835937 -4.97265625 -0.14453125 C-3 -1 -3 -1 0 0 Z " fill="#D5D5D5" transform="translate(98,17)"/>
<path d="M0 0 C2.94350444 3.60130791 5.68271192 7.28849015 8.3125 11.125 C9.03050781 12.15882812 9.74851562 13.19265625 10.48828125 14.2578125 C10.98714844 15.16273437 11.48601563 16.06765625 12 17 C11.67 17.99 11.34 18.98 11 20 C10.01 20 9.02 20 8 20 C8 20.66 8 21.32 8 22 C7.34 22 6.68 22 6 22 C6 22.66 6 23.32 6 24 C4.02 24.66 2.04 25.32 0 26 C-0.54269531 25.25234375 -1.08539063 24.5046875 -1.64453125 23.734375 C-2.35996094 22.74953125 -3.07539063 21.7646875 -3.8125 20.75 C-4.52019531 19.77546875 -5.22789063 18.8009375 -5.95703125 17.796875 C-7.62154821 15.51810991 -9.30001823 13.25234178 -11 11 C-10.34 9.68 -9.68 8.36 -9 7 C-8.34 7 -7.68 7 -7 7 C-7 6.34 -7 5.68 -7 5 C-6.34 5 -5.68 5 -5 5 C-5 4.34 -5 3.68 -5 3 C-2.5 1.375 -2.5 1.375 0 0 Z " fill="#DEDEDE" transform="translate(31,54)"/>
<path d="M0 0 C5.66153846 1.47692308 5.66153846 1.47692308 7.375 4.125 C7.684375 5.053125 7.684375 5.053125 8 6 C8.66 5.67 9.32 5.34 10 5 C10.66 5.33 11.32 5.66 12 6 C10.66666667 9.33333333 9.33333333 12.66666667 8 16 C7.34 16 6.68 16 6 16 C5.7525 16.721875 5.505 17.44375 5.25 18.1875 C3.89016326 21.24713266 2.17082246 23.4673738 0 26 C-1.17219543 25.21654285 -2.33763668 24.42297164 -3.5 23.625 C-4.1496875 23.18414062 -4.799375 22.74328125 -5.46875 22.2890625 C-5.9740625 21.86367187 -6.479375 21.43828125 -7 21 C-7 20.34 -7 19.68 -7 19 C-8.32 18.67 -9.64 18.34 -11 18 C-9.87548273 15.0280615 -8.77706209 12.66559313 -7 10 C-4.83125748 10.50603992 -3.00032373 10.99983813 -1 12 C-1 11.34 -1 10.68 -1 10 C-2.32 9.34 -3.64 8.68 -5 8 C-3.35 5.36 -1.7 2.72 0 0 Z " fill="#D7D6D7" transform="translate(96,61)"/>
<path d="M0 0 C3.44727223 3.13809983 5.78417924 6.6375943 8.125 10.625 C10.70800763 15.07138228 10.70800763 15.07138228 14 19 C11 21 11 21 8.97363281 20.83618164 C6.55178815 19.81010322 5.82865332 18.82381243 4.421875 16.62109375 C3.76445313 15.61079102 3.76445313 15.61079102 3.09375 14.58007812 C2.42859375 13.51950195 2.42859375 13.51950195 1.75 12.4375 C1.29109375 11.72658203 0.8321875 11.01566406 0.359375 10.28320312 C-0.77093497 8.52886786 -1.88687103 6.76528659 -3 5 C-1.125 1.125 -1.125 1.125 0 0 Z " fill="#DADADB" transform="translate(88,20)"/>
<path d="M0 0 C1.98 0.66 3.96 1.32 6 2 C5.65066406 2.47050781 5.30132812 2.94101562 4.94140625 3.42578125 C4.48636719 4.04839844 4.03132813 4.67101562 3.5625 5.3125 C3.11003906 5.92738281 2.65757813 6.54226562 2.19140625 7.17578125 C0.82663692 9.09677101 0.82663692 9.09677101 0 12 C0.99 12.33 1.98 12.66 3 13 C2.0925 13.226875 1.185 13.45375 0.25 13.6875 C-3.44888324 15.18127977 -4.77905658 16.75400577 -7 20 C-8.32 19.34 -9.64 18.68 -11 18 C-9.87548273 15.0280615 -8.77706209 12.66559313 -7 10 C-4.83125748 10.50603992 -3.00032373 10.99983813 -1 12 C-1 11.34 -1 10.68 -1 10 C-2.32 9.34 -3.64 8.68 -5 8 C-3.35 5.36 -1.7 2.72 0 0 Z " fill="#D0D0D0" transform="translate(96,61)"/>
<path d="M0 0 C3.27750059 3.0703448 5.79466564 6.3478888 8.3125 10.0625 C9.03050781 11.10535156 9.74851562 12.14820312 10.48828125 13.22265625 C10.98714844 14.13917969 11.48601563 15.05570313 12 16 C11.67 16.99 11.34 17.98 11 19 C6.81142089 17.47173465 5.15574256 14.76925447 2.75 11.125 C1.69039062 9.55105469 1.69039062 9.55105469 0.609375 7.9453125 C-1 5 -1 5 -1 1 C-0.67 0.67 -0.34 0.34 0 0 Z " fill="#151515" transform="translate(22,61)"/>
<path d="M0 0 C0.99 0 1.98 0 3 0 C4.66779133 2.22372178 6.12425248 4.38498614 7.5625 6.75 C7.96146484 7.38421875 8.36042969 8.0184375 8.77148438 8.671875 C10.66941131 11.71362768 12.48036002 14.74714902 14 18 C12.68 18.33 11.36 18.66 10 19 C8.13284189 16.21681883 6.28356646 13.42220667 4.4375 10.625 C3.90447266 9.8309375 3.37144531 9.036875 2.82226562 8.21875 C2.32275391 7.45820313 1.82324219 6.69765625 1.30859375 5.9140625 C0.84251709 5.2123291 0.37644043 4.5105957 -0.10375977 3.78759766 C-0.39951904 3.19769043 -0.69527832 2.6077832 -1 2 C-0.67 1.34 -0.34 0.68 0 0 Z " fill="#181818" transform="translate(90,19)"/>
<path d="M0 0 C2.94350444 3.60130791 5.68271192 7.28849015 8.3125 11.125 C9.03050781 12.15882812 9.74851562 13.19265625 10.48828125 14.2578125 C10.98714844 15.16273437 11.48601563 16.06765625 12 17 C11.67 17.99 11.34 18.98 11 20 C6.49339042 18.50124223 4.62893147 14.89436193 2.25 11.0625 C1.63318359 10.11213867 1.63318359 10.11213867 1.00390625 9.14257812 C-2 4.39720463 -2 4.39720463 -2 1 C-1.34 0.67 -0.68 0.34 0 0 Z " fill="#141414" transform="translate(31,54)"/>
<path d="M0 0 C0.99 0.33 1.98 0.66 3 1 C1.41467191 5.55564061 -0.99003081 9.31475769 -3.625 13.3125 C-4.04523437 13.95767578 -4.46546875 14.60285156 -4.8984375 15.26757812 C-5.92838241 16.84760724 -6.96365628 18.42416047 -8 20 C-8.99 19.67 -9.98 19.34 -11 19 C-9.47730437 14.75877447 -7.32369719 11.04913327 -4.9375 7.25 C-4.57333984 6.66089844 -4.20917969 6.07179688 -3.83398438 5.46484375 C-1.15223689 1.15223689 -1.15223689 1.15223689 0 0 Z " fill="#161516" transform="translate(31,10)"/>
<path d="M0 0 C1.32 0.33 2.64 0.66 4 1 C-3.29840547 13.66970387 -3.29840547 13.66970387 -7 19 C-8.32 18.67 -9.64 18.34 -11 18 C-3.70159453 5.33029613 -3.70159453 5.33029613 0 0 Z " fill="#151515" transform="translate(35,13)"/>
<path d="M0 0 C0.99 0.33 1.98 0.66 3 1 C1.48103632 5.43170173 -0.92639809 9.03024076 -3.625 12.8125 C-4.04523437 13.40998047 -4.46546875 14.00746094 -4.8984375 14.62304688 C-5.92779728 16.08520565 -6.9632823 17.54304899 -8 19 C-8.99 18.67 -9.98 18.34 -11 18 C-9.51971645 13.81490516 -7.42574276 10.41688407 -4.9375 6.75 C-4.22464844 5.69296875 -3.51179688 4.6359375 -2.77734375 3.546875 C-1 1 -1 1 0 0 Z " fill="#101010" transform="translate(40,16)"/>
<path d="M0 0 C0.99 0.33 1.98 0.66 3 1 C2.55269531 1.6290625 2.10539062 2.258125 1.64453125 2.90625 C-2.07836269 8.17704227 -5.63510972 13.4938159 -9 19 C-9.99 18.34 -10.98 17.68 -12 17 C-11.34 17 -10.68 17 -10 17 C-9.75507813 16.30519531 -9.51015625 15.61039063 -9.2578125 14.89453125 C-7.79749975 11.53399786 -5.93718222 8.71425133 -3.875 5.6875 C-3.15054688 4.61886719 -2.42609375 3.55023437 -1.6796875 2.44921875 C-0.84824219 1.23685547 -0.84824219 1.23685547 0 0 Z " fill="#D7D7D7" transform="translate(38,15)"/>
<path d="M0 0 C0.99 0.66 1.98 1.32 3 2 C2.58878906 2.35707031 2.17757812 2.71414063 1.75390625 3.08203125 C-1.08660556 6.18824796 -3.02594166 9.89777266 -5.12695312 13.52539062 C-6.03335896 15.04863218 -7.01146003 16.5287335 -8 18 C-8.66 18 -9.32 18 -10 18 C-8.47146065 13.72813475 -6.28490519 10.00673137 -3.875 6.1875 C-3.50246094 5.59001953 -3.12992188 4.99253906 -2.74609375 4.37695312 C-1.8342952 2.91573749 -0.91764024 1.45755415 0 0 Z " fill="#DADADA" transform="translate(34,11)"/>
<path d="M0 0 C1.32 0.33 2.64 0.66 4 1 C1.525 5.455 1.525 5.455 -1 10 C-1.99 9.34 -2.98 8.68 -4 8 C-2.87548273 5.0280615 -1.77706209 2.66559313 0 0 Z " fill="#181818" transform="translate(98,77)"/>
<path d="M0 0 C1.32 0.33 2.64 0.66 4 1 C2.68 3.31 1.36 5.62 0 8 C-1.32 8 -2.64 8 -4 8 C-2.87548273 5.0280615 -1.77706209 2.66559313 0 0 Z " fill="#1B1B1B" transform="translate(89,71)"/>
<path d="M0 0 C2.40072955 2.88087546 4.47291037 5.56404834 6 9 C4.68 9.33 3.36 9.66 2 10 C-2 4.375 -2 4.375 -2 1 C-1.34 0.67 -0.68 0.34 0 0 Z " fill="#181818" transform="translate(33,67)"/>
<path d="M0 0 C1.32 0.33 2.64 0.66 4 1 C3.24266726 2.3410477 2.46867264 3.67269781 1.6875 5 C1.25824219 5.7425 0.82898438 6.485 0.38671875 7.25 C-0.07089844 7.8275 -0.52851562 8.405 -1 9 C-1.99 9 -2.98 9 -4 9 C-3.35455571 5.51460083 -1.89865603 2.97180943 0 0 Z " fill="#1A1919" transform="translate(100,64)"/>
<path d="M0 0 C0.99 0.33 1.98 0.66 3 1 C1.68775452 4.93673644 0.08089673 7.22719294 -3 10 C-3.66 9.01 -4.32 8.02 -5 7 C-3.35 4.69 -1.7 2.38 0 0 Z " fill="#161616" transform="translate(96,61)"/>
<path d="M0 0 C3.29148243 1.13499394 3.9959869 1.99283376 5.75 5.125 C6.1625 6.07375 6.575 7.0225 7 8 C6.01 8.66 5.02 9.32 4 10 C3.13342884 8.90554162 2.28207276 7.79902219 1.4375 6.6875 C0.96183594 6.07261719 0.48617187 5.45773438 -0.00390625 4.82421875 C-0.33261719 4.22222656 -0.66132812 3.62023437 -1 3 C-0.67 2.01 -0.34 1.02 0 0 Z " fill="#1A1A1A" transform="translate(86,22)"/>
<path d="M0 0 C0.99 0.33 1.98 0.66 3 1 C1.87548273 3.9719385 0.77706209 6.33440687 -1 9 C-2.32 8.67 -3.64 8.34 -5 8 C-1.125 1.125 -1.125 1.125 0 0 Z " fill="#141414" transform="translate(94,74)"/>
<path d="M0 0 C0.99 0.33 1.98 0.66 3 1 C1.7508258 4.45925163 0.32472205 7.14693203 -2 10 C-2.99 9.67 -3.98 9.34 -5 9 C-3.35 6.03 -1.7 3.06 0 0 Z " fill="#181818" transform="translate(105,66)"/>
<path d="M0 0 C4 5.29411765 4 5.29411765 4 9 C2.25 8.9375 2.25 8.9375 0 8 C-1.59501537 5.75835678 -2.74543018 3.46433357 -4 1 C-2 0 -2 0 0 0 Z " fill="#191919" transform="translate(95,32)"/>
<path d="M0 0 C1.8125 0.125 1.8125 0.125 4 1 C5.75 4.0625 5.75 4.0625 7 7 C6.01 7.66 5.02 8.32 4 9 C2.35 6.69 0.7 4.38 -1 2 C-0.67 1.34 -0.34 0.68 0 0 Z " fill="#161616" transform="translate(101,26)"/>
<path d="M0 0 C4.39158329 1.4638611 4.87947433 3.97831338 7 8 C5.68 8.33 4.36 8.66 3 9 C0.9375 6.1875 0.9375 6.1875 -1 3 C-0.67 2.01 -0.34 1.02 0 0 Z " fill="#161616" transform="translate(95,16)"/>
<path d="M0 0 C0.66 0 1.32 0 2 0 C4.1875 2.8125 4.1875 2.8125 6 6 C5.67 6.99 5.34 7.98 5 9 C1.83884224 7.63016497 1.0072908 7.0109362 -1 4 C-0.625 1.8125 -0.625 1.8125 0 0 Z " fill="#0E0E0E" transform="translate(26,58)"/>
<path d="M0 0 C0.99 0.66 1.98 1.32 3 2 C2.5875 2.391875 2.175 2.78375 1.75 3.1875 C-0.32884913 5.34059374 -2.15468957 7.64563841 -4 10 C-4.66 9.34 -5.32 8.68 -6 8 C-5.34 8 -4.68 8 -4 8 C-3.71125 7.236875 -3.4225 6.47375 -3.125 5.6875 C-2 3 -2 3 0 0 Z " fill="#CACACB" transform="translate(97,75)"/>
<path d="M0 0 C2.66735273 2.48952921 4.55746343 4.63408134 6 8 C5.01 8 4.02 8 3 8 C1.02 4.535 1.02 4.535 -1 1 C-0.67 0.67 -0.34 0.34 0 0 Z " fill="#D1D1D1" transform="translate(88,20)"/>
<path d="M0 0 C2.01136276 2.55991624 3.62845496 5.04590299 5 8 C4.01 8 3.02 8 2 8 C0.93224776 6.03533587 -0.06553465 4.03144641 -1 2 C-0.67 1.34 -0.34 0.68 0 0 Z " fill="#CCCCCD" transform="translate(24,59)"/>
<path d="M0 0 C4 4.625 4 4.625 4 8 C2.62437146 6.71034824 1.29233607 5.37310707 0 4 C0 3.34 0 2.68 0 2 C-0.66 1.67 -1.32 1.34 -2 1 C-1.34 0.67 -0.68 0.34 0 0 Z " fill="#D4D4D4" transform="translate(28,56)"/>
</svg>
