<svg viewBox="0 0 72 72" xmlns="http://www.w3.org/2000/svg"><path d="m19 32h34v24h-34z" fill="#fff"/><path d="m25 40h9v16h-9z" fill="#a57939"/><path d="m40 40h8v7h-8z" fill="#92d3f5"/><path d="m53 32-34 .0003v-1.0003l16-16 18 16z" fill="#ea5a47"/><path d="m29 21-5 5v-9h5z" fill="#ea5a47"/><g style="fill:none;stroke:#000;stroke-linecap:round;stroke-linejoin:round;stroke-miterlimit:10;stroke-width:2"><path d="m25 40h9v16h-9z"/><path d="m40 40h8v7h-8z"/><path d="m53 32-34 .0003v-1.0003l16-16 18 16z"/><path d="m19 32h34v24h-34z"/><path d="m29 21-5 5v-9h5z"/></g></svg>